<svg width="70" height="70" viewBox="0 0 70 " fill="none" xmlns="http://www.w3.org/2000/svg">
    <defs>
        <symbol id="mail">
            <path
                d="M14.5 0H1.50001C0.672854 0 0 0.672853 0 1.50001V10.5C0 11.3271 0.672854 12 1.50001 12H14.5C15.3271 12 16 11.3271 16 10.5V1.50001C16 0.672853 15.3271 0 14.5 0ZM14.5 0.999994C14.5679 0.999994 14.6325 1.01409 14.6916 1.0387L8 6.83838L1.30833 1.0387C1.36742 1.01412 1.43204 0.999994 1.49998 0.999994H14.5ZM14.5 11H1.50001C1.22414 11 0.999996 10.7759 0.999996 10.5V2.09521L7.67236 7.87792C7.76661 7.95944 7.8833 7.99999 8 7.99999C8.1167 7.99999 8.23339 7.95948 8.32764 7.87792L15 2.09521V10.5C15 10.7759 14.7759 11 14.5 11Z" />
        </symbol>

        <symbol id="tel">
            <path
                d="M8.5 0H1.5C0.672848 0 0 0.672848 0 1.5V14.5C0 15.3272 0.672848 16 1.5 16H8.5C9.32715 16 10 15.3272 10 14.5V1.5C10 0.672848 9.32715 0 8.5 0ZM1.5 1H8.5C8.77588 1 9 1.22412 9 1.5V12H1V1.5C1 1.22412 1.22412 1 1.5 1ZM8.5 15H1.5C1.22412 15 1 14.7759 1 14.5V13H9V14.5C9 14.7759 8.77588 15 8.5 15Z"
            />
        </symbol>
        <symbol id="antenna">
            <path
                d="M67.3163 48.3385L48.8468 29.7337L50.8966 19.6373C51.4256 19.8438 51.9879 19.9517 52.5556 19.9558H52.5696C55.1777 19.9866 57.3169 17.8974 57.3479 15.2893C57.3788 12.6812 55.2894 10.542 52.6813 10.5111C50.0732 10.4803 47.934 12.5695 47.9031 15.1776C47.8965 15.7357 47.9888 16.2905 48.176 16.8163L37.326 18.1405L19.6276 0.35C19.4105 0.128479 19.1141 0.00247917 18.804 0C18.4977 0.00160417 18.2044 0.123521 17.9873 0.3395L14.6786 3.6295C14.2232 4.08508 14.2232 4.82358 14.6786 5.27917L16.459 7.08517C9.56162 19.7681 11.8019 35.4741 21.9703 45.7228C22.0636 45.8121 22.1718 45.8843 22.29 45.9363C22.2165 46.3311 22.1781 46.7317 22.1756 47.1333V60.6667H8.17562C4.95562 60.6705 2.34608 63.28 2.34229 66.5V68.8333C2.34229 69.4776 2.86466 70 3.50895 70H57.1756C57.8199 70 58.3423 69.4776 58.3423 68.8333V66.5C58.3385 63.28 55.729 60.6705 52.509 60.6667H38.509V54.6688C40.7021 55.1288 42.9367 55.3633 45.1776 55.3688C50.5548 55.363 55.8464 54.0225 60.5776 51.4675L62.3673 53.2677C62.5844 53.4892 62.8808 53.6152 63.191 53.6177C63.4972 53.6161 63.7905 53.4941 64.0076 53.2782L67.3163 49.9882C67.7717 49.5326 67.7717 48.7941 67.3163 48.3385ZM50.9246 13.6348C51.8383 12.726 53.3157 12.7301 54.2244 13.6437C55.1332 14.5574 55.1291 16.0348 54.2155 16.9435C53.7781 17.3785 53.1864 17.6226 52.5695 17.6225H52.5625C51.2739 17.6158 50.2345 16.5658 50.2412 15.2771C50.2445 14.6602 50.4918 14.0699 50.9291 13.6348H50.9246ZM48.1783 21.301L46.8693 27.7445L44.298 25.158L48.1783 21.301ZM46.853 19.3282L42.653 23.5037L39.4038 20.237L46.853 19.3282ZM52.509 63C54.442 63 56.009 64.567 56.009 66.5V67.6667H4.67562V66.5C4.67562 64.567 6.2426 63 8.17562 63H52.509ZM36.1756 58.3333V60.6667H24.509V58.3333H36.1756ZM24.509 56V47.1333C24.509 44.303 27.1258 42 30.3423 42C33.5588 42 36.1756 44.303 36.1756 47.1333V56H24.509ZM38.509 52.29V47.1333C38.509 43.0162 34.8456 39.6667 30.3423 39.6667C27.4306 39.622 24.7079 41.1041 23.165 43.5738C14.2887 34.2249 12.2899 20.2875 18.1805 8.82073L58.872 49.7455C52.5886 52.9419 45.3857 53.8418 38.509 52.29ZM63.2038 50.7943L61.56 49.1412L18.7923 6.11567L17.1415 4.46133L18.7923 2.81633L36.15 20.272C36.1581 20.272 36.1628 20.2872 36.171 20.293L64.8593 49.1493L63.2038 50.7943Z"
                fill="#212121" />
            <path
                d="M30.3528 44.3333H30.3423C28.4093 44.3304 26.84 45.895 26.837 47.8281C26.8341 49.7611 28.3988 51.3304 30.3318 51.3333H30.3423C32.2753 51.3362 33.8446 49.7716 33.8475 47.8386C33.8505 45.9055 32.2858 44.3362 30.3528 44.3333ZM31.1695 48.6605C30.9498 48.8789 30.6522 49.0012 30.3423 49C29.698 48.9966 29.1784 48.4716 29.1817 47.8273C29.1834 47.5189 29.307 47.2237 29.5256 47.0062C29.7428 46.7902 30.036 46.6683 30.3423 46.6667C30.9866 46.67 31.5062 47.195 31.5028 47.8393C31.5012 48.1477 31.3776 48.4429 31.159 48.6605H31.1695Z"
                fill="#2196F3" />
        </symbol>
        <symbol id="clock">
            <path
                d="M71.4614 33.4715C71.4576 14.9819 56.4656 -0.00373771 37.9754 6.99302e-07C19.4858 0.00373911 4.50017 14.9963 4.50391 33.4859C4.50711 48.0502 13.9252 60.9413 27.7995 65.3713C27.9319 65.413 28.0697 65.4343 28.2081 65.4338C28.4719 65.4333 28.7304 65.3628 28.9573 65.2287C29.2527 65.0541 29.4732 64.7764 29.5768 64.449L38.0315 37.6521C40.3429 37.6404 42.2068 35.7568 42.1945 33.4459C42.1827 31.1345 40.2997 29.2706 37.9883 29.2824C37.3666 29.285 36.753 29.4282 36.1944 29.7011L25.0251 18.5302C24.4707 17.9951 23.5879 18.0106 23.0528 18.5644C22.5305 19.1054 22.5305 19.962 23.0528 20.503L34.2162 31.6792C33.3596 33.4277 33.8493 35.5383 35.3895 36.7303L27.3338 62.2647C11.4135 56.4002 3.26169 38.7405 9.12618 22.8203C14.9907 6.90002 32.6503 -1.25183 48.5706 4.61266C64.4909 10.4771 72.6427 28.1374 66.7782 44.0571C63.913 51.8351 58.0261 58.1252 50.4548 61.4989L49.5842 57.3989C49.4251 56.6454 48.6844 56.1636 47.9308 56.3233C47.6932 56.3741 47.4726 56.4857 47.291 56.6475L38.8978 64.1409C38.322 64.653 38.2708 65.5347 38.7835 66.1105C38.9501 66.2974 39.1637 66.4362 39.403 66.5126L50.1188 69.9327C50.8521 70.1682 51.6377 69.765 51.8732 69.0312C51.948 68.7994 51.9603 68.5527 51.9101 68.3145L51.0545 64.2915C63.4452 59.0678 71.4902 46.918 71.4614 33.4715V33.4715ZM37.9829 32.0766C38.753 32.0766 39.3779 32.7014 39.3779 33.4715C39.3779 34.2422 38.753 34.8665 37.9829 34.8665C37.2123 34.8665 36.588 34.2422 36.588 33.4715C36.588 32.7014 37.2123 32.0766 37.9829 32.0766ZM42.5774 64.5916L47.3551 60.3298L48.6737 66.543L42.5774 64.5916Z"
                fill="#212121" />
            <path
                d="M36.5879 6.96732V9.75723C36.5879 10.5279 37.2122 11.1522 37.9828 11.1522C38.753 11.1522 39.3778 10.5279 39.3778 9.75723V6.96732C39.3778 6.1972 38.753 5.57236 37.9828 5.57236C37.2122 5.57236 36.5879 6.1972 36.5879 6.96732Z"
                fill="#2196F3" />
            <path
                d="M11.4787 32.0765C10.7081 32.0765 10.0837 32.7014 10.0837 33.4715C10.0837 34.2421 10.7081 34.8665 11.4787 34.8665H14.2686C15.0393 34.8665 15.6636 34.2421 15.6636 33.4715C15.6636 32.7014 15.0393 32.0765 14.2686 32.0765H11.4787Z"
                fill="#2196F3" />
            <path
                d="M64.4865 34.8665C65.2572 34.8665 65.8815 34.2421 65.8815 33.4715C65.8815 32.7014 65.2572 32.0765 64.4865 32.0765H61.6966C60.9265 32.0765 60.3016 32.7014 60.3016 33.4715C60.3016 34.2421 60.9265 34.8665 61.6966 34.8665H64.4865Z"
                fill="#2196F3" />
        </symbol>
        <symbol id="data">
            <path d="M32.6496 32.7351H34.9817V43.2296H32.6496V32.7351Z" fill="#2196F3" />
            <path d="M41.978 37.3993H44.3101V43.2296H41.978V37.3993Z" fill="#2196F3" />
            <path d="M23.3211 40.8975H25.6532V43.2296H23.3211V40.8975Z" fill="#2196F3" />
            <path d="M16.3248 39.7314H18.6569V43.2295H16.3248V39.7314Z" fill="#2196F3" />
            <path
                d="M3.49817 61.8865H59.4689C61.4007 61.8865 62.967 60.3202 62.967 58.3883V53.7241C62.967 51.7922 61.4007 50.2259 59.4689 50.2259H58.3028V21.1468L64.9262 14.8724C66.4635 15.6303 68.3242 15.1702 69.3302 13.7815C70.3369 12.3934 70.1957 10.4821 68.9966 9.25681C67.7975 8.03154 65.8901 7.84877 64.4798 8.82409C63.0701 9.79998 62.569 11.6498 63.2933 13.2036L58.3028 17.9345V15.2442C58.3028 13.3124 56.7365 11.7461 54.8046 11.7461H8.16239C6.23054 11.7461 4.66422 13.3124 4.66422 15.2442V50.2259H3.49817C1.56632 50.2259 0 51.7922 0 53.7241V58.3883C0 60.3202 1.56632 61.8865 3.49817 61.8865ZM66.4652 10.58C67.1091 10.58 67.6312 11.1021 67.6312 11.7461C67.6312 12.39 67.1091 12.9121 66.4652 12.9121C65.8212 12.9121 65.2991 12.39 65.2991 11.7461C65.2991 11.1021 65.8212 10.58 66.4652 10.58ZM6.99634 15.2442C6.99634 14.6003 7.51844 14.0782 8.16239 14.0782H54.8046C55.4486 14.0782 55.9707 14.6003 55.9707 15.2442V20.1413L53.6386 22.3573V17.5763C53.6386 16.9324 53.1165 16.4103 52.4725 16.4103H10.4945C9.85055 16.4103 9.32845 16.9324 9.32845 17.5763V46.7277C9.32845 47.3717 9.85055 47.8938 10.4945 47.8938H52.4725C53.1165 47.8938 53.6386 47.3717 53.6386 46.7277V25.5651L55.9707 23.3554V50.2259H6.99634V15.2442ZM17.4908 30.403C15.9131 30.3984 14.5279 31.4495 14.1083 32.9702C13.6886 34.491 14.3383 36.104 15.6951 36.9091C17.0513 37.7142 18.7793 37.512 19.9129 36.4149L23.9662 38.4486C24.4371 38.6844 25.0081 38.5739 25.3583 38.1805L33.9745 28.4871L42.4443 34.8337C42.8987 35.1742 43.5329 35.1378 43.9452 34.7478L51.3065 27.7748V45.5617H11.6606V18.7424H51.3065V24.5619L43.0564 32.3747L34.5154 25.9716C34.0303 25.6084 33.3476 25.6767 32.9445 26.1293L24.2099 35.9571L20.9446 34.3242C20.9685 34.1841 20.9833 34.0429 20.989 33.9011C20.989 31.9693 19.4227 30.403 17.4908 30.403ZM18.6569 33.9011C18.6569 34.5451 18.1348 35.0672 17.4908 35.0672C16.8469 35.0672 16.3248 34.5451 16.3248 33.9011C16.3248 33.2572 16.8469 32.7351 17.4908 32.7351C18.1348 32.7351 18.6569 33.2572 18.6569 33.9011ZM25.6532 52.558H37.3138V53.7241C37.3138 54.368 36.7917 54.8901 36.1477 54.8901H26.8193C26.1753 54.8901 25.6532 54.368 25.6532 53.7241V52.558ZM2.33211 53.7241C2.33211 53.0801 2.85422 52.558 3.49817 52.558H23.3211V53.7241C23.3211 55.6559 24.8874 57.2223 26.8193 57.2223H36.1477C38.0796 57.2223 39.6459 55.6559 39.6459 53.7241V52.558H59.4689C60.1128 52.558 60.6349 53.0801 60.6349 53.7241V58.3883C60.6349 59.0323 60.1128 59.5544 59.4689 59.5544H3.49817C2.85422 59.5544 2.33211 59.0323 2.33211 58.3883V53.7241Z"
                fill="#212121" />
        </symbol>
        <symbol id="astronaut">
            <path
                d="M69.9433 9.8964C69.8056 9.47516 69.4416 9.16727 69.0018 9.10301L64.8228 8.49515L62.9526 4.70812C62.5606 3.91008 61.2527 3.91008 60.8608 4.70812L58.9906 8.49515L54.8114 9.10315C54.3716 9.16727 54.0076 9.47421 53.8687 9.89654C53.7323 10.3189 53.8453 10.7832 54.1639 11.0924L57.1891 14.0407L56.4752 18.2034C56.4005 18.6409 56.5802 19.0831 56.9384 19.3445C57.3012 19.6082 57.7748 19.6408 58.168 19.4331L61.9061 17.4672L65.6442 19.4331C65.8146 19.5229 66.0024 19.5672 66.1879 19.5672C66.4294 19.5672 66.671 19.4926 66.874 19.3444C67.2333 19.0831 67.413 18.6408 67.3372 18.2033L66.6233 14.0405L69.6485 11.0923C69.9654 10.7819 70.0798 10.3187 69.9433 9.8964ZM64.5556 12.7991C64.2815 13.0663 64.1555 13.4536 64.2208 13.8316L64.6385 16.2688L62.4499 15.1185C62.2795 15.0286 62.0929 14.9843 61.9061 14.9843C61.7195 14.9843 61.534 15.0286 61.3624 15.1185L59.1736 16.2688L59.5913 13.8316C59.6567 13.4536 59.5306 13.0675 59.2565 12.7991L57.4843 11.0725L59.932 10.7166C60.3124 10.6618 60.6402 10.4226 60.8106 10.0784L61.9049 7.86172L62.9992 10.0784C63.1696 10.4225 63.4974 10.6618 63.8778 10.7166L66.3255 11.0725L64.5556 12.7991Z"
                fill="#2196F3" />
            <path d="M57.167 44.8923H54.8336V47.2257H57.167V44.8923Z" fill="#2196F3" />
            <path d="M57.167 49.5591H54.8336V51.8925H57.167V49.5591Z" fill="#2196F3" />
            <path d="M59.5004 47.2257H57.167V49.5591H59.5004V47.2257Z" fill="#2196F3" />
            <path d="M54.8337 47.2257H52.5003V49.5591H54.8337V47.2257Z" fill="#2196F3" />
            <path d="M49.0002 57.7259H46.6668V60.0593H49.0002V57.7259Z" fill="#2196F3" />
            <path d="M49.0002 62.3926H46.6668V64.726H49.0002V62.3926Z" fill="#2196F3" />
            <path d="M51.3337 60.0593H49.0002V62.3927H51.3337V60.0593Z" fill="#2196F3" />
            <path d="M46.6668 60.0593H44.3334V62.3927H46.6668V60.0593Z" fill="#2196F3" />
            <path d="M35 53.0592H32.6666V55.3926H35V53.0592Z" fill="#2196F3" />
            <path d="M35 57.7259H32.6666V60.0593H35V57.7259Z" fill="#2196F3" />
            <path d="M37.3334 55.3925H35V57.7259H37.3334V55.3925Z" fill="#2196F3" />
            <path d="M32.6666 55.3925H30.3332V57.7259H32.6666V55.3925Z" fill="#2196F3" />
            <path d="M12.833 13.3918H10.4996V15.7252H12.833V13.3918Z" fill="#2196F3" />
            <path d="M12.833 18.0587H10.4996V20.3921H12.833V18.0587Z" fill="#2196F3" />
            <path d="M15.1663 15.7253H12.8329V18.0587H15.1663V15.7253Z" fill="#2196F3" />
            <path d="M10.4996 15.7253H8.1662V18.0587H10.4996V15.7253Z" fill="#2196F3" />
            <path
                d="M54.0635 30.9738C53.4347 30.1256 52.5119 29.5797 51.4642 29.4326C50.4118 29.2833 49.3734 29.5597 48.5334 30.2026L45.7952 32.3014L45.794 32.3026L41.6428 35.4025L38.6724 34.2195C43.9691 31.843 47.6711 26.545 47.6711 20.3942C47.6711 12.0314 40.8401 5.22739 32.4436 5.22739C24.047 5.22739 17.2161 12.0314 17.2161 20.3942C17.2161 23.4253 18.1226 26.244 19.6662 28.6158L13.6204 28.5633C13.6168 28.5633 13.6134 28.5633 13.6099 28.5633C13.5911 28.5633 13.5761 28.5726 13.5586 28.5738C13.4431 28.5785 13.3298 28.6019 13.2191 28.6415C13.1911 28.652 13.162 28.6579 13.1352 28.6706C13.1212 28.6765 13.1071 28.6776 13.0932 28.6846L6.02075 32.1764C6.01952 32.1764 6.01843 32.1764 6.01843 32.1775L1.8766 34.1693C1.83107 34.1891 1.78445 34.2159 1.73892 34.2463C0.0880191 35.3452 -0.474314 37.5036 0.429958 39.2676C0.911763 40.2056 1.73195 40.8964 2.73999 41.2125C3.12856 41.3337 3.52518 41.3933 3.91949 41.3933C4.55305 41.3933 5.18074 41.2382 5.75578 40.9314L8.79154 39.3167L13.7441 36.7593L16.7122 36.7418L4.80844 48.5884C4.80735 48.5896 4.80612 48.5896 4.80489 48.5907L1.87647 51.5074C1.18466 52.1958 0.8043 53.1092 0.8043 54.0835C0.8043 55.0565 1.18466 55.9723 1.87647 56.6619C2.587 57.3689 3.52149 57.7236 4.45598 57.7236C5.3917 57.7236 6.32495 57.3689 7.03782 56.6619L9.91251 53.7988L13.7206 50.9556L15.6912 52.9179L11.8375 56.7552C11.8364 56.7564 11.8352 56.7564 11.834 56.7575L8.90556 59.6741C8.21375 60.3625 7.8334 61.276 7.8334 62.2502C7.8334 63.2233 8.21375 64.139 8.90556 64.8287C9.6161 65.5356 10.5518 65.8903 11.4863 65.8903C12.4208 65.8903 13.3565 65.5356 14.0681 64.8287L16.9977 61.912L21.6842 57.2453C21.6854 57.2441 21.6854 57.243 21.6865 57.2417L23.8951 55.0542L23.8869 55.046C23.9008 55.0321 23.9207 55.0273 23.9347 55.0122L35.2353 42.6349L42.8281 43.7153C42.8829 43.7235 42.9377 43.7269 42.9925 43.7269C43.1338 43.7269 43.2702 43.6931 43.402 43.6429C43.4406 43.629 43.4743 43.6103 43.5106 43.5917C43.5526 43.5706 43.5968 43.559 43.6366 43.5322L50.6659 38.8655C50.6916 38.848 50.7055 38.82 50.73 38.8014C50.758 38.7792 50.793 38.7699 50.8186 38.7453L53.5999 36.1401C55.0471 34.7841 55.2466 32.5628 54.0635 30.9738ZM4.66024 38.8722C4.28111 39.0752 3.85058 39.116 3.43878 38.9854C3.03039 38.8583 2.69912 38.5793 2.50538 38.2025C2.15305 37.5165 2.35718 36.6811 2.97433 36.2297L5.84793 34.8471L6.53974 36.869L6.83027 37.7183L4.66024 38.8722ZM12.3102 34.8741L8.92333 36.6241L8.36456 34.9907L7.96328 33.817L12.3967 31.6282L12.3102 34.8741ZM45.3402 20.3919C45.3402 22.4009 44.8607 24.2957 44.03 25.9908L34.8832 21.8362C34.7875 20.5821 34.1366 19.4842 33.1589 18.8005L36.3614 8.16853C41.5626 9.82298 45.3402 14.6752 45.3402 20.3919ZM19.5519 20.3919C19.5519 13.3159 25.3363 7.55834 32.446 7.55834C32.9991 7.55834 33.5403 7.60496 34.0759 7.67264L30.9433 18.0714C30.9014 18.0701 30.8617 18.0585 30.8185 18.0585C28.5597 18.0585 26.7222 19.8902 26.7222 22.1419C26.7222 24.3936 28.5597 26.2254 30.8185 26.2254C32.3375 26.2254 33.65 25.3866 34.3582 24.1591L42.8073 27.9976C40.4564 31.1616 36.6938 33.2255 32.4459 33.2255C25.3363 33.2255 19.5519 27.4679 19.5519 20.3919ZM32.5814 22.1419C32.5814 23.1068 31.7903 23.892 30.8185 23.892C29.8467 23.892 29.0556 23.1068 29.0556 22.1419C29.0556 21.1771 29.8467 20.3919 30.8185 20.3919C31.7903 20.3919 32.5814 21.1771 32.5814 22.1419ZM5.39183 55.0075C4.87503 55.5196 4.03843 55.5185 3.52286 55.0087C3.2743 54.7601 3.13785 54.4324 3.13785 54.0835C3.13785 53.7358 3.2743 53.408 3.52286 53.1619L5.6274 51.0652L7.48941 52.9192L5.39183 55.0075ZM12.4222 63.1743C11.9054 63.6865 11.0677 63.6877 10.552 63.1756C10.3034 62.927 10.1669 62.5993 10.1669 62.2504C10.1669 61.9027 10.3034 61.5748 10.552 61.3287L12.6579 59.231L13.5388 60.1073L14.5211 61.085L12.4222 63.1743ZM20.0383 55.5862C20.0371 55.5873 20.036 55.5873 20.0348 55.5885L16.1742 59.4386L15.2933 58.5623L14.311 57.5846L18.168 53.7451C18.168 53.7451 18.168 53.7451 18.168 53.744C18.1692 53.7428 18.1703 53.7428 18.1715 53.7417C18.259 53.6542 18.3139 53.5492 18.3676 53.4454C18.3828 53.4151 18.4119 53.3894 18.4248 53.3579C18.461 53.2681 18.4667 53.1713 18.4808 53.0767C18.4878 53.0229 18.5112 52.9729 18.5112 52.9179C18.5112 52.8397 18.4831 52.764 18.4669 52.6869C18.4529 52.6169 18.4529 52.5457 18.426 52.4781C18.3817 52.3685 18.3058 52.2717 18.2265 52.1771C18.2044 52.1514 18.1962 52.1187 18.1717 52.0942C18.1717 52.0942 18.1717 52.0942 18.1705 52.0942C18.1692 52.0931 18.1692 52.0906 18.1681 52.0896L14.6529 48.5895C14.6156 48.5522 14.5677 48.537 14.5257 48.5056C14.464 48.4577 14.4045 48.4134 14.3356 48.3795C14.2691 48.3468 14.2014 48.327 14.1314 48.3083C14.0568 48.2872 13.9845 48.2709 13.9063 48.2651C13.835 48.2604 13.7686 48.2674 13.6975 48.2756C13.6193 48.2849 13.5459 48.2954 13.47 48.3199C13.3964 48.3433 13.3312 48.3794 13.2635 48.4179C13.2203 48.4424 13.1714 48.4506 13.1305 48.4809L9.25133 51.3767L7.28077 49.4143L12.5285 44.1946L22.0674 53.576L20.0383 55.5862ZM34.9544 40.2372C34.9207 40.2326 34.8891 40.2454 34.8553 40.2431C34.7701 40.2385 34.6885 40.2443 34.6034 40.2583C34.5369 40.2699 34.4739 40.2828 34.4108 40.3049C34.3362 40.3306 34.2685 40.3656 34.1996 40.4076C34.1343 40.4472 34.0748 40.4892 34.0176 40.5417C33.9896 40.5662 33.9558 40.5779 33.9301 40.6058L23.6527 51.8621L14.185 42.5507L20.3825 36.3859C20.8387 35.9309 20.841 35.1924 20.386 34.735C20.1562 34.5052 19.854 34.392 19.5519 34.3932V34.3921L14.6984 34.4213L14.7591 30.9049L21.5492 30.9633C24.3166 33.7937 28.176 35.5589 32.446 35.5589C33.4027 35.5589 34.3361 35.4598 35.2448 35.2905C35.3323 35.3605 35.4186 35.4318 35.5284 35.4761L40.7995 37.5761L41.1331 39.2351L41.5228 41.1717L34.9544 40.2372ZM43.7944 40.6269L43.1096 37.219L46.2736 34.8564L47.102 35.9554L48.3445 37.6051L43.7944 40.6269ZM52.0055 34.4341L50.1726 36.1515L48.1356 33.4471L49.9544 32.053C50.2938 31.7917 50.7221 31.6855 51.1421 31.7403C51.5644 31.7998 51.9378 32.0203 52.1921 32.3621C52.6658 33.0003 52.5853 33.8905 52.0055 34.4341Z"
                fill="#212121" />
            <path
                d="M29.7545 40.5651L25.0668 35.8984C24.613 35.4446 23.8755 35.4446 23.4205 35.8984L18.734 40.5651C18.5147 40.7856 18.391 41.0819 18.391 41.3922C18.391 41.7026 18.5135 42.0001 18.734 42.2194L23.4205 46.8861C23.648 47.1124 23.9468 47.2256 24.2443 47.2256C24.5418 47.2256 24.8404 47.1124 25.0668 46.8861L29.7545 42.2194C29.9738 42.0001 30.0987 41.7026 30.0987 41.3922C30.0987 41.0819 29.9749 40.7844 29.7545 40.5651ZM24.2443 44.4128L21.2109 41.3922L24.2443 38.3717L27.2788 41.3922L24.2443 44.4128Z"
                fill="#212121" />
            <path
                d="M37.5468 11.0923L36.9833 13.3581C37.1385 13.3966 40.7844 14.3463 40.7844 18.0587H43.1178C43.1177 13.6461 39.4742 11.5718 37.5468 11.0923Z"
                fill="#212121" />
            <path d="M43.1178 20.3919H40.7844V22.7253H43.1178V20.3919Z" fill="#212121" />
        </symbol>

        <symbol id="insta">
            <path
                d="M19.9804 5.88005C19.9336 4.81738 19.7617 4.0868 19.5156 3.45374C19.2616 2.78176 18.8709 2.18014 18.359 1.68002C17.8589 1.1721 17.2533 0.777435 16.5891 0.527447C15.9524 0.281274 15.2256 0.109427 14.163 0.0625732C13.0924 0.0117516 12.7525 0 10.0371 0C7.32173 0 6.98185 0.0117516 5.91521 0.0586052C4.85253 0.105459 4.12195 0.277459 3.48904 0.523479C2.81692 0.777435 2.2153 1.16814 1.71517 1.68002C1.20726 2.18014 0.812743 2.78573 0.562603 3.44992C0.31643 4.0868 0.144583 4.81341 0.0977294 5.87609C0.0469078 6.9467 0.0351562 7.28658 0.0351562 10.002C0.0351562 12.7173 0.0469078 13.0572 0.0937614 14.1239C0.140615 15.1865 0.312615 15.9171 0.558787 16.5502C0.812743 17.2221 1.20726 17.8238 1.71517 18.3239C2.2153 18.8318 2.82088 19.2265 3.48508 19.4765C4.12195 19.7226 4.84856 19.8945 5.91139 19.9413C6.97788 19.9883 7.31791 19.9999 10.0333 19.9999C12.7487 19.9999 13.0885 19.9883 14.1552 19.9413C15.2179 19.8945 15.9484 19.7226 16.5813 19.4765C17.9254 18.9568 18.9881 17.8941 19.5078 16.5502C19.7538 15.9133 19.9258 15.1865 19.9727 14.1239C20.0195 13.0572 20.0313 12.7173 20.0313 10.002C20.0313 7.28658 20.0273 6.9467 19.9804 5.88005ZM18.1794 14.0457C18.1364 15.0225 17.9723 15.5499 17.8356 15.9015C17.4995 16.7728 16.808 17.4643 15.9367 17.8004C15.5851 17.9372 15.0538 18.1012 14.0809 18.1441C13.026 18.1911 12.7096 18.2027 10.0411 18.2027C7.37255 18.2027 7.05221 18.1911 6.00113 18.1441C5.02438 18.1012 4.49693 17.9372 4.1453 17.8004C3.71171 17.6402 3.31704 17.3862 2.9967 17.0541C2.6646 16.7298 2.41065 16.3391 2.2504 15.9055C2.11365 15.5539 1.94959 15.0225 1.90671 14.0497C1.8597 12.9948 1.8481 12.6783 1.8481 10.0097C1.8481 7.34122 1.8597 7.02087 1.90671 5.96995C1.94959 4.99319 2.11365 4.46575 2.2504 4.11412C2.41065 3.68038 2.6646 3.28586 3.00067 2.96536C3.32483 2.63327 3.71553 2.37931 4.14927 2.21921C4.5009 2.08247 5.03231 1.9184 6.0051 1.87537C7.05999 1.82851 7.37652 1.81676 10.0449 1.81676C12.7174 1.81676 13.0337 1.82851 14.0848 1.87537C15.0616 1.9184 15.589 2.08247 15.9407 2.21921C16.3742 2.37931 16.7689 2.63327 17.0893 2.96536C17.4213 3.28967 17.6753 3.68038 17.8356 4.11412C17.9723 4.46575 18.1364 4.99701 18.1794 5.96995C18.2263 7.02484 18.238 7.34122 18.238 10.0097C18.238 12.6783 18.2263 12.9908 18.1794 14.0457Z"
                />
            <path
                d="M10.0371 4.8642C7.20074 4.8642 4.89941 7.16537 4.89941 10.0019C4.89941 12.8385 7.20074 15.1396 10.0371 15.1396C12.8737 15.1396 15.1749 12.8385 15.1749 10.0019C15.1749 7.16537 12.8737 4.8642 10.0371 4.8642ZM10.0371 13.3346C8.19702 13.3346 6.70442 11.8422 6.70442 10.0019C6.70442 8.16165 8.19702 6.66921 10.0371 6.66921C11.8774 6.66921 13.3698 8.16165 13.3698 10.0019C13.3698 11.8422 11.8774 13.3346 10.0371 13.3346Z"
                />
            <path
                d="M16.5775 4.6611C16.5775 5.32346 16.0404 5.86052 15.3779 5.86052C14.7155 5.86052 14.1785 5.32346 14.1785 4.6611C14.1785 3.99858 14.7155 3.46167 15.3779 3.46167C16.0404 3.46167 16.5775 3.99858 16.5775 4.6611Z"
               />
        </symbol>

        <symbol id="twit">
            <path
                d="M20 3.79875C19.2563 4.125 18.4637 4.34125 17.6375 4.44625C18.4875 3.93875 19.1363 3.14125 19.4412 2.18C18.6488 2.6525 17.7738 2.98625 16.8412 3.1725C16.0887 2.37125 15.0162 1.875 13.8462 1.875C11.5763 1.875 9.74875 3.7175 9.74875 5.97625C9.74875 6.30125 9.77625 6.61375 9.84375 6.91125C6.435 6.745 3.41875 5.11125 1.3925 2.6225C1.03875 3.23625 0.83125 3.93875 0.83125 4.695C0.83125 6.115 1.5625 7.37375 2.6525 8.1025C1.99375 8.09 1.3475 7.89875 0.8 7.5975C0.8 7.61 0.8 7.62625 0.8 7.6425C0.8 9.635 2.22125 11.29 4.085 11.6712C3.75125 11.7625 3.3875 11.8062 3.01 11.8062C2.7475 11.8062 2.4825 11.7913 2.23375 11.7362C2.765 13.36 4.2725 14.5538 6.065 14.5925C4.67 15.6838 2.89875 16.3412 0.98125 16.3412C0.645 16.3412 0.3225 16.3263 0 16.285C1.81625 17.4563 3.96875 18.125 6.29 18.125C13.835 18.125 17.96 11.875 17.96 6.4575C17.96 6.27625 17.9538 6.10125 17.945 5.9275C18.7588 5.35 19.4425 4.62875 20 3.79875Z"
                />
        </symbol>
        <symbol id="face">
            <path
                d="M13.3309 3.32083H15.1567V0.140833C14.8417 0.0975 13.7584 0 12.4967 0C9.86422 0 8.06088 1.65583 8.06088 4.69917V7.5H5.15588V11.055H8.06088V20H11.6226V11.0558H14.4101L14.8526 7.50083H11.6217V5.05167C11.6226 4.02417 11.8992 3.32083 13.3309 3.32083Z" />
        </symbol>
        <symbol id="linke">
            <path
                d="M19.995 20V19.9992H20V12.6642C20 9.07587 19.2275 6.31171 15.0325 6.31171C13.0158 6.31171 11.6625 7.41837 11.11 8.46754H11.0517V6.64671H7.07416V19.9992H11.2158V13.3875C11.2158 11.6467 11.5458 9.96337 13.7017 9.96337C15.8258 9.96337 15.8575 11.95 15.8575 13.4992V20H19.995Z"
                 />
            <path d="M0.330017 6.64746H4.47668V20H0.330017V6.64746Z"  />
            <path
                d="M2.40167 0C1.07583 0 0 1.07583 0 2.40167C0 3.7275 1.07583 4.82583 2.40167 4.82583C3.7275 4.82583 4.80333 3.7275 4.80333 2.40167C4.8025 1.07583 3.72667 0 2.40167 0V0Z"
                 />
        </symbol>

        <symbol id="client1">
        <path fill-rule="evenodd" clip-rule="evenodd"
                d="M6 0.0869751L13.0078 6.7211L0 6.71344V38.9007H34V26.594L41 33.2208V0.0869751H6ZM33.6924 25.8153L13.8226 7.00493H33.6924V25.8153ZM27.5231 34.1925H5.38008V12.5449H6.9453V32.7267H27.5231V34.1925ZM10.6089 43.1861L9.79102 44.8707L8.97314 43.1861H8.28711L9.48096 45.4322V46.7408H10.1011V45.4322L11.2925 43.1861H10.6089ZM11.6367 46.7408L11.9248 45.9131H13.3018L13.5923 46.7408H14.2368L12.8916 43.1861H12.3374L10.9946 46.7408H11.6367ZM12.6133 43.9405L13.1284 45.4151H12.0981L12.6133 43.9405ZM15.8701 45.3297C15.7806 45.4664 15.7358 45.6169 15.7358 45.7813C15.7358 46.0808 15.8408 46.3241 16.0508 46.5113C16.2624 46.6968 16.5439 46.7896 16.8955 46.7896C17.2471 46.7896 17.5498 46.6944 17.8037 46.504L18.0039 46.7408H18.6924L18.1699 46.1231C18.375 45.8432 18.4775 45.4843 18.4775 45.0464H17.9624C17.9624 45.2857 17.9128 45.503 17.8135 45.6983L17.1274 44.8878L17.3691 44.712C17.54 44.5883 17.6629 44.4646 17.7378 44.3409C17.8127 44.2156 17.8501 44.0788 17.8501 43.9307C17.8501 43.7061 17.7671 43.5181 17.6011 43.3668C17.4367 43.2138 17.2251 43.1373 16.9663 43.1373C16.6798 43.1373 16.452 43.2186 16.2827 43.3814C16.1134 43.5425 16.0288 43.7623 16.0288 44.0406C16.0288 44.1545 16.0557 44.2725 16.1094 44.3946C16.1647 44.5167 16.2616 44.6648 16.3999 44.8389C16.1362 45.0277 15.9596 45.1913 15.8701 45.3297ZM17.4741 46.1158C17.3 46.2492 17.1128 46.316 16.9126 46.316C16.7352 46.316 16.5936 46.2647 16.4878 46.1622C16.382 46.0596 16.3291 45.9262 16.3291 45.7618C16.3291 45.5714 16.4268 45.4021 16.6221 45.254L16.6978 45.2003L17.4741 46.1158ZM16.8369 44.5411C16.6693 44.3344 16.5854 44.1627 16.5854 44.0259C16.5854 43.9071 16.6196 43.8087 16.688 43.7305C16.7563 43.6524 16.8483 43.6133 16.9639 43.6133C17.0713 43.6133 17.16 43.6467 17.23 43.7134C17.3 43.7785 17.335 43.8575 17.335 43.9503C17.335 44.0902 17.2845 44.205 17.1836 44.2945L17.1079 44.3555L16.8369 44.5411ZM22.623 46.4722C22.8672 46.259 23.0072 45.9628 23.043 45.5836H22.4277C22.3952 45.8375 22.3179 46.0189 22.1958 46.128C22.0737 46.237 21.8914 46.2916 21.6489 46.2916C21.3836 46.2916 21.1818 46.1907 21.0435 45.9888C20.9067 45.787 20.8384 45.494 20.8384 45.1099V44.795C20.8416 44.4158 20.9149 44.1285 21.0581 43.9332C21.203 43.7362 21.4097 43.6378 21.6782 43.6378C21.9093 43.6378 22.0843 43.6947 22.2031 43.8087C22.3236 43.921 22.3984 44.1049 22.4277 44.3604H23.043C23.0039 43.9714 22.8647 43.6703 22.6255 43.4571C22.3862 43.2439 22.0705 43.1373 21.6782 43.1373C21.3869 43.1373 21.1297 43.2064 20.9067 43.3448C20.6854 43.4831 20.5153 43.6801 20.3965 43.9356C20.2777 44.1911 20.2183 44.4866 20.2183 44.8218V45.1539C20.2231 45.481 20.2842 45.7683 20.4014 46.0157C20.5186 46.2631 20.6846 46.4543 20.8994 46.5894C21.1159 46.7229 21.3657 46.7896 21.6489 46.7896C22.0542 46.7896 22.3789 46.6838 22.623 46.4722ZM26.2534 45.9742C26.3739 45.7105 26.4341 45.4045 26.4341 45.0562V44.8585C26.4325 44.5118 26.3706 44.2082 26.2485 43.9478C26.1265 43.6858 25.9531 43.4856 25.7285 43.3472C25.5055 43.2073 25.2492 43.1373 24.9595 43.1373C24.6698 43.1373 24.4126 43.2081 24.188 43.3497C23.965 43.4896 23.7917 43.6923 23.668 43.9576C23.5459 44.2229 23.4849 44.5289 23.4849 44.8755V45.0757C23.4865 45.4159 23.5483 45.7162 23.6704 45.9766C23.7941 46.237 23.9683 46.438 24.1929 46.5797C24.4191 46.7196 24.6763 46.7896 24.9644 46.7896C25.2557 46.7896 25.5129 46.7196 25.7358 46.5797C25.9604 46.438 26.133 46.2362 26.2534 45.9742ZM25.5918 43.9649C25.7415 44.1749 25.8164 44.4768 25.8164 44.8707V45.0562C25.8164 45.4566 25.7423 45.761 25.5942 45.9693C25.4478 46.1776 25.2378 46.2818 24.9644 46.2818C24.6942 46.2818 24.4826 46.1752 24.3296 45.962C24.1782 45.7488 24.1025 45.4468 24.1025 45.0562V44.8511C24.1058 44.4686 24.1823 44.1732 24.332 43.9649C24.4834 43.7549 24.6925 43.65 24.9595 43.65C25.2329 43.65 25.4437 43.7549 25.5918 43.9649Z"
                /></symbol>
                <symbol id="client2">
                <path fill-rule="evenodd" clip-rule="evenodd"
                    d="M21.1136 3.0215H20.977C20.7671 3.00878 20.5571 3.0037 20.3471 2.99861H20.3471H20.3269H19.8918C19.4946 2.99861 19.0898 3.00878 18.6876 3.02912C18.6573 3.02692 18.6269 3.02692 18.5966 3.02912C14.9522 3.23561 11.3817 4.14649 8.08049 5.7119L7.6479 5.92042V28.0616L8.65979 27.7183C9.54773 27.4131 10.4938 27.1385 11.4728 26.8842C14.1193 26.2048 16.8367 25.8437 19.568 25.8085V28.7176C19.2062 28.7202 18.8546 28.7303 18.503 28.7481H18.4195C16.3175 28.8634 14.2317 29.1837 12.1913 29.7043C9.60716 30.3512 7.11433 31.3226 4.77161 32.5956V4.19886C7.20469 2.77973 9.82533 1.71385 12.5556 1.03294C14.9527 0.414027 17.4169 0.0962821 19.8918 0.0869751H20.3193C20.8303 0.0996897 21.3287 0.122576 21.7967 0.158177C23.0297 0.244751 24.2528 0.439603 25.4521 0.740503V3.60382C24.2874 3.33248 23.1032 3.15393 21.9105 3.06981C21.8863 3.06777 21.8621 3.0657 21.8379 3.06363C21.5911 3.04258 21.344 3.0215 21.1136 3.0215ZM26.1528 5.94836C26.7877 5.99667 27.4455 6.01956 28.1108 6.01956C30.7125 6.01005 33.3031 5.67781 35.8239 5.03037C38.4068 4.38094 40.8986 3.40875 43.2411 2.13654V30.0272C40.8067 31.4455 38.1853 32.5113 35.4546 33.1931C33.0571 33.8097 30.5931 34.1265 28.1184 34.1365C26.2433 34.1517 24.3737 33.9313 22.553 33.4805V5.40926C22.983 5.50844 23.4257 5.59998 23.876 5.67627C24.6147 5.80087 25.3939 5.89242 26.1528 5.94836ZM40.3471 6.16451L39.3352 6.50526C38.4042 6.81804 37.4657 7.09775 36.5221 7.34696C33.7749 8.05293 30.9514 8.41507 28.1158 8.42515C27.4556 8.42515 26.8485 8.40735 26.2616 8.36921L25.4546 8.31581V28.4048V31.0927L26.1477 31.1537C26.7903 31.2096 27.4531 31.2376 28.1209 31.2376C30.3544 31.2281 32.5781 30.9403 34.7412 30.3806C36.5223 29.9339 38.2552 29.3112 39.9145 28.5218L40.3471 28.3133V6.16451Z"
                   />
                <path
                    d="M6.73713 42.2994C6.59166 42.1485 6.41629 42.0301 6.22236 41.9516C6.02844 41.8732 5.82029 41.8366 5.61141 41.8442C5.38879 41.8413 5.16781 41.8828 4.96127 41.9663C4.7719 42.0417 4.59977 42.1551 4.45532 42.2994C4.31245 42.4442 4.20129 42.6175 4.12899 42.808C4.04968 43.0077 4.01014 43.2211 4.01262 43.4361V47.2301C4.00357 47.4975 4.05459 47.7634 4.16187 48.0083C4.25143 48.2027 4.38072 48.376 4.54133 48.5168C4.69295 48.6445 4.87098 48.7366 5.06246 48.7864C5.24694 48.8382 5.43755 48.8648 5.62911 48.8652C5.84041 48.8673 6.04953 48.8222 6.24131 48.733C6.43095 48.65 6.60277 48.5308 6.74725 48.3821C6.88814 48.2347 7.00052 48.0622 7.07865 47.8735C7.15973 47.6822 7.20105 47.4762 7.20007 47.2683V46.8436H6.20842V47.1818C6.21137 47.2973 6.1916 47.4122 6.15024 47.52C6.11794 47.6008 6.06877 47.6736 6.00604 47.7336C5.94461 47.7833 5.87416 47.8204 5.79861 47.843C5.73164 47.8653 5.6617 47.8773 5.59117 47.8786C5.50263 47.8889 5.41296 47.8755 5.33122 47.8398C5.24948 47.804 5.17858 47.7473 5.1257 47.6751C5.03222 47.5227 4.9864 47.3455 4.99415 47.1666V43.6294C4.988 43.4332 5.02969 43.2385 5.11558 43.0623C5.16706 42.9822 5.2399 42.9183 5.32578 42.8778C5.41166 42.8374 5.50713 42.822 5.60129 42.8334C5.68676 42.8304 5.7717 42.8482 5.8488 42.8854C5.92591 42.9226 5.99289 42.9781 6.04399 43.047C6.15496 43.1927 6.21298 43.3722 6.20842 43.5556V43.8837H7.18995V43.4971C7.19195 43.2701 7.15073 43.0449 7.06853 42.8334C6.99527 42.6347 6.88251 42.453 6.73713 42.2994Z"
                    />
                <path
                    d="M12.6289 42.2561C12.3127 41.9891 11.9136 41.8416 11.5007 41.8391C11.2987 41.84 11.0984 41.8761 10.9087 41.9459C10.7161 42.0149 10.5384 42.1202 10.3851 42.2561C10.2208 42.4038 10.0897 42.585 10.0005 42.7876C9.90063 43.0194 9.85146 43.27 9.85634 43.5225V47.1614C9.8495 47.4174 9.89873 47.6718 10.0005 47.9065C10.0903 48.1022 10.2215 48.2758 10.3851 48.4151C10.5367 48.5558 10.7147 48.6648 10.9087 48.7355C11.0984 48.8053 11.2987 48.8414 11.5007 48.8423C11.7027 48.8419 11.9031 48.8058 12.0926 48.7355C12.29 48.6638 12.4719 48.5551 12.6289 48.4151C12.7871 48.2732 12.9145 48.1 13.0033 47.9065C13.1051 47.6718 13.1544 47.4174 13.1475 47.1614V43.5225C13.1524 43.27 13.1032 43.0194 13.0033 42.7876C12.9151 42.5871 12.7878 42.4064 12.6289 42.2561ZM12.166 47.1614C12.1743 47.2584 12.1609 47.356 12.1268 47.4471C12.0926 47.5382 12.0386 47.6205 11.9687 47.6878C11.8377 47.7977 11.6725 47.8578 11.5019 47.8578C11.3313 47.8578 11.1662 47.7977 11.0352 47.6878C10.9652 47.6205 10.9112 47.5382 10.8771 47.4471C10.8429 47.356 10.8295 47.2584 10.8379 47.1614V43.5225C10.8295 43.4255 10.8429 43.3279 10.8771 43.2368C10.9112 43.1457 10.9652 43.0635 11.0352 42.9961C11.1662 42.8863 11.3313 42.8261 11.5019 42.8261C11.6725 42.8261 11.8377 42.8863 11.9687 42.9961C12.0386 43.0635 12.0926 43.1457 12.1268 43.2368C12.1609 43.3279 12.1743 43.4255 12.166 43.5225V47.1614Z"
                   />
                <path
                    d="M20.3673 48.7864V41.8977H19.4136L18.1614 45.5442H18.1437L16.8813 41.8977H15.9377V48.7864H16.9218V44.5957H16.9395L17.9033 47.5582H18.3941L19.3655 44.5957H19.3832V48.7864H20.3673Z"
                  />
                <path
                    d="M25.9581 42.3807C25.8065 42.2107 25.6153 42.0814 25.4015 42.0043C25.1712 41.9294 24.9302 41.8933 24.6881 41.8975H23.226V48.7863H24.2075V46.0959H24.7134C25.0197 46.1098 25.3244 46.0451 25.5988 45.9077C25.822 45.7838 26.0081 45.602 26.1377 45.3813C26.2512 45.1981 26.3277 44.9942 26.3628 44.7812C26.4014 44.522 26.4192 44.2601 26.4159 43.998C26.4255 43.6672 26.3932 43.3365 26.3198 43.0139C26.2543 42.7755 26.1299 42.5577 25.9581 42.3807ZM25.4521 44.4812C25.4479 44.6059 25.4168 44.7282 25.361 44.8397C25.3049 44.9456 25.2162 45.0304 25.1081 45.0813C24.9627 45.1463 24.8041 45.1759 24.6451 45.1677H24.1974V42.8257H24.7033C24.8557 42.8182 25.0075 42.8479 25.146 42.9122C25.2475 42.9704 25.3281 43.0594 25.3762 43.1665C25.4299 43.2875 25.4591 43.418 25.4622 43.5504C25.4622 43.6954 25.4622 43.848 25.4622 44.0082C25.4622 44.1684 25.4723 44.3337 25.4622 44.4812H25.4521Z"
                />
                <path
                    d="M30.6077 41.8977H29.8032L28.2854 48.7864H29.2669L29.5553 47.3065H30.8935L31.1819 48.7864H32.1635L30.6077 41.8977ZM29.702 46.3681L30.1852 43.871H30.2029L30.6836 46.3681H29.702Z"
                     />
                <path
                    d="M36.9497 46.0477H36.932L35.4496 41.8977H34.506V48.7864H35.4875V44.644H35.5078L37.0079 48.7864H37.9312V41.8977H36.9497V46.0477Z"
                    />
                <path
                    d="M42.9476 41.8977L42.1583 44.6364H42.1381L41.3488 41.8977H40.3091L41.6574 45.8748V48.7864H42.639V45.8748L43.9873 41.8977H42.9476Z"
                  />
           </symbol>
           <symbol id="client3">
            <path
                d="M7.40628 41.1883C7.42219 41.1887 7.43786 41.1918 7.45238 41.1975C7.46689 41.2032 7.47995 41.2114 7.4908 41.2215L7.70892 41.43C7.53961 41.5987 7.33035 41.7337 7.09546 41.8257C6.82039 41.926 6.52394 41.9745 6.22572 41.9678C5.94548 41.9728 5.66705 41.9277 5.40777 41.8351C5.17389 41.7502 4.96376 41.6225 4.79159 41.4608C4.61588 41.2931 4.48054 41.0965 4.39353 40.8827C4.29824 40.6444 4.25119 40.3935 4.25448 40.1411C4.25061 39.8872 4.30147 39.6349 4.40443 39.3972C4.49968 39.182 4.64335 38.9855 4.82704 38.8191C5.01321 38.656 5.23592 38.5278 5.48139 38.4424C5.74992 38.3519 6.03588 38.3069 6.32387 38.3097C6.59138 38.3041 6.85747 38.3452 7.10637 38.4306C7.32231 38.512 7.52058 38.625 7.69256 38.7646L7.50988 38.9873C7.49726 39.003 7.48158 39.0166 7.46353 39.0276C7.44198 39.0404 7.41593 39.0463 7.38992 39.0442C7.36162 39.0425 7.33434 39.0343 7.31085 39.0205L7.2127 38.9613L7.07637 38.8854C7.01753 38.8573 6.95649 38.8328 6.8937 38.812C6.81283 38.7868 6.72989 38.767 6.64559 38.7528C6.5386 38.7356 6.42992 38.7277 6.32114 38.7291C6.11376 38.7268 5.90796 38.7606 5.71587 38.8286C5.53672 38.8915 5.37501 38.9868 5.24146 39.1082C5.10551 39.2372 5.00074 39.3887 4.93337 39.5536C4.85658 39.7422 4.81874 39.9411 4.82158 40.1411C4.81831 40.3443 4.85615 40.5464 4.93337 40.7382C4.9999 40.9017 5.10272 41.0522 5.23601 41.1812C5.36088 41.3015 5.51567 41.3955 5.6886 41.4561C5.86657 41.5202 6.0576 41.5524 6.25025 41.5508C6.36154 41.5523 6.47278 41.546 6.58288 41.5319C6.76267 41.5128 6.93513 41.4585 7.08728 41.3731C7.16359 41.3294 7.23563 41.2803 7.30267 41.2263C7.3307 41.203 7.36756 41.1895 7.40628 41.1883Z"
                />
            <path
                d="M13.7044 40.1407C13.7078 40.3921 13.6579 40.6418 13.5572 40.8775C13.4684 41.0913 13.3284 41.2862 13.1465 41.4496C12.9646 41.6129 12.745 41.7409 12.5021 41.8251C11.9683 42.002 11.3782 42.002 10.8444 41.8251C10.603 41.7396 10.3848 41.6113 10.2037 41.4484C10.0219 41.2821 9.88095 41.0855 9.78927 40.8704C9.59287 40.3932 9.59287 39.8716 9.78927 39.3945C9.88228 39.1793 10.0231 38.982 10.2037 38.8141C10.3864 38.6563 10.6045 38.5329 10.8444 38.4516C11.3775 38.2715 11.969 38.2715 12.5021 38.4516C12.7443 38.5371 12.9634 38.6653 13.1455 38.8283C13.325 38.9929 13.465 39.187 13.5572 39.3992C13.6582 39.6364 13.7081 39.8878 13.7044 40.1407ZM13.1319 40.1407C13.1362 39.9396 13.1011 39.7394 13.0283 39.5485C12.9672 39.3849 12.8679 39.2341 12.7366 39.1054C12.6087 38.9837 12.4513 38.8882 12.2758 38.8259C11.8879 38.6964 11.4586 38.6964 11.0707 38.8259C10.8952 38.8882 10.7378 38.9837 10.6099 39.1054C10.4768 39.2333 10.3764 39.3843 10.3155 39.5485C10.1768 39.9341 10.1768 40.3473 10.3155 40.733C10.377 40.8969 10.4773 41.0478 10.6099 41.176C10.7379 41.297 10.8953 41.3917 11.0707 41.4532C11.4593 41.5794 11.8872 41.5794 12.2758 41.4532C12.4512 41.3917 12.6086 41.297 12.7366 41.176C12.8673 41.047 12.9665 40.8963 13.0283 40.733C13.1015 40.5422 13.1365 40.3418 13.1319 40.1407Z"
                />
            <path
                d="M18.0013 40.7616L18.0586 40.8943C18.0804 40.8469 18.0995 40.8043 18.1213 40.7616C18.1421 40.7171 18.1657 40.6736 18.1922 40.6313L19.5854 38.4308C19.6127 38.3929 19.6372 38.3692 19.6645 38.3621C19.7015 38.3523 19.7403 38.3482 19.779 38.3502H20.1907V41.9294H19.7026V39.2977C19.7026 39.2646 19.7026 39.2267 19.7026 39.1864C19.7 39.1454 19.7 39.1042 19.7026 39.0632L18.3012 41.2946C18.2834 41.328 18.255 41.3563 18.2192 41.376C18.1834 41.3958 18.1418 41.4061 18.0995 41.4059H18.0204C17.9779 41.4064 17.9362 41.3962 17.9004 41.3764C17.8646 41.3566 17.8362 41.3282 17.8186 41.2946L16.3763 39.049C16.3763 39.0916 16.3763 39.1343 16.3763 39.1769C16.3763 39.2196 16.3763 39.2575 16.3763 39.2906V41.9223H15.9047V38.3502H16.3164C16.355 38.3482 16.3938 38.3523 16.4309 38.3621C16.4647 38.3766 16.4916 38.4009 16.5072 38.4308L17.9304 40.6337C17.9584 40.6744 17.9821 40.7172 18.0013 40.7616Z"
                />
            <path
                d="M23.2443 40.5838V41.9245H22.699V38.3501H23.915C24.1446 38.3463 24.3735 38.3726 24.5939 38.4283C24.7704 38.4717 24.9341 38.5477 25.0738 38.6509C25.1949 38.7477 25.2883 38.8678 25.3464 39.0015C25.4108 39.1473 25.4423 39.3025 25.4391 39.4586C25.4415 39.6154 25.4072 39.7709 25.3383 39.9158C25.2727 40.0529 25.172 40.1753 25.0438 40.2735C24.9039 40.3811 24.7395 40.4618 24.5612 40.5104C24.3489 40.5693 24.1269 40.5973 23.9041 40.5933L23.2443 40.5838ZM23.2443 40.2001H23.9041C24.0475 40.2017 24.1901 40.1833 24.3267 40.1456C24.4394 40.1126 24.5433 40.0603 24.6321 39.9916C24.714 39.9261 24.7775 39.845 24.8175 39.7547C24.8621 39.6592 24.8844 39.557 24.8829 39.4539C24.8893 39.3545 24.8706 39.2552 24.8282 39.1627C24.7859 39.0703 24.7208 38.987 24.6376 38.9186C24.4293 38.7773 24.1676 38.7088 23.9041 38.7267H23.2443V40.2001Z"
                />
            <path
                d="M30.5731 41.9293H30.1423C30.0991 41.9307 30.0566 41.919 30.0223 41.8961C29.9914 41.8738 29.9671 41.8454 29.9514 41.8132L29.5806 40.9485H27.7185L27.334 41.8132C27.3199 41.8448 27.2964 41.8726 27.2659 41.8938C27.2312 41.918 27.1877 41.9306 27.1432 41.9293H26.7124L28.3483 38.3497H28.9154L30.5731 41.9293ZM27.8739 40.6003H29.4116L28.7627 39.1433C28.7131 39.0338 28.6721 38.9214 28.64 38.8069L28.5773 38.9941C28.5582 39.051 28.5364 39.1031 28.5173 39.1457L27.8739 40.6003Z"
                 />
            <path
                d="M32.9288 38.3664C32.9614 38.3819 32.9894 38.4038 33.0106 38.4304L35.3962 41.1286C35.3962 41.086 35.3962 41.0433 35.3962 41.0031C35.3962 40.9628 35.3962 40.9225 35.3962 40.8846V38.3498H35.8843V41.9293H35.6116C35.5729 41.9304 35.5345 41.923 35.4998 41.908C35.4662 41.8909 35.4365 41.8684 35.4126 41.8417L33.0297 39.1458C33.0323 39.1868 33.0323 39.2279 33.0297 39.269C33.0297 39.3092 33.0297 39.3448 33.0297 39.3779V41.9293H32.5416V38.3498H32.8306C32.8644 38.349 32.8979 38.3546 32.9288 38.3664Z"
               />
            <path
                d="M39.9031 40.5057V41.9271H39.3578V40.5057L37.85 38.35H38.3381C38.3801 38.3478 38.4217 38.3587 38.4553 38.3808C38.485 38.4037 38.5099 38.431 38.5289 38.4613L39.4723 39.8519C39.5105 39.9111 39.5432 39.9656 39.5705 40.0177C39.5977 40.0698 39.6195 40.1196 39.6386 40.1693L39.7095 40.0153C39.736 39.959 39.7669 39.9044 39.8022 39.8519L40.7319 38.4518C40.7515 38.4239 40.7753 38.3984 40.8028 38.376C40.8352 38.3515 40.8772 38.3387 40.9201 38.3405H41.4136L39.9031 40.5057Z"
                />
            <path
                d="M17.7314 32.3431C17.9686 32.3691 18.2086 32.3904 18.4512 32.4094C22.1301 30.9795 25.2422 28.6392 27.3987 25.6811C29.5552 22.7229 30.6603 19.2782 30.5759 15.7773L26.5216 12.2548C27.346 15.9821 26.9604 19.8351 25.408 23.3828C23.8555 26.9306 21.1976 30.033 17.7314 32.3431Z"
                />
            <path
                d="M16.2837 32.1792L16.3928 32.1981C20.0966 29.8963 22.9205 26.682 24.4993 22.9708C26.078 19.2596 26.3389 15.2223 25.2483 11.3808L19.4737 6.36365C21.8094 10.4877 22.7495 15.1031 22.1848 19.6731C21.6201 24.2431 19.5737 28.5799 16.2837 32.1792Z"
                />
            <path
                d="M35.8679 19.9135C34.8868 23.76 32.5041 27.2292 29.0735 29.8058C28.0716 30.5624 26.9909 31.2365 25.8454 31.8193C28.6389 31.1059 31.2065 29.8447 33.3502 28.1329C35.494 26.421 37.1566 24.3043 38.21 21.9459L35.8679 19.9135Z"
                />
            <path
                d="M34.9491 19.347L31.6146 16.4498C31.5509 19.7529 30.4701 22.9809 28.4846 25.7983C26.4991 28.6157 23.6814 30.9196 20.3243 32.4706H20.3406C21.0888 32.4704 21.8362 32.4316 22.5791 32.3546C25.7165 31.2419 28.488 29.4718 30.6465 27.2021C32.8049 24.9324 34.2831 22.2338 34.9491 19.347Z"
                />
            <path
                d="M16.7663 4.24782L12.7883 0.786865C9.23222 1.98082 6.1738 4.07975 4.01337 6.80894C1.85294 9.53813 0.69115 12.7704 0.680054 16.0828H0.680054C0.693382 19.7429 2.11126 23.2946 4.70929 26.1757C7.30731 29.0569 10.9371 31.1029 15.0241 31.9899C18.6725 28.1279 20.8086 23.3557 21.1219 18.3667C21.4352 13.3777 19.9094 8.43186 16.7663 4.24782Z"
               />
            <path
                d="M44.1401 18.8142C44.1257 14.4718 42.1339 10.3107 38.5997 7.24009C35.0656 4.16948 30.2764 2.4389 25.2784 2.4264C22.9688 2.42432 20.6789 2.79461 18.5249 3.51845L42.8805 24.6796C43.7144 22.809 44.1415 20.8202 44.1401 18.8142Z"
                /></symbol>
                <symbol id="client4">
            <path
                d="M24.1462 21.1899H24.1433C21.7453 21.1899 19.8013 22.9175 19.8013 25.0485V25.0511C19.8013 27.1822 21.7453 28.9098 24.1433 28.9098H24.1462C26.5442 28.9098 28.4882 27.1822 28.4882 25.0511V25.0485C28.4882 22.9175 26.5442 21.1899 24.1462 21.1899Z"
                />
            <path
                d="M56.195 19.9563C56.1882 16.9963 54.8623 14.1593 52.5074 12.066C50.1525 9.97271 46.9604 8.79371 43.6297 8.78699V8.78699C40.298 8.79236 37.1045 9.97078 34.7484 12.0642C32.3922 14.1576 31.0655 16.9955 31.0587 19.9563V36.2792C31.0587 36.2792 56.1922 33.7914 56.195 19.9589V19.9563Z"
                 />
            <path
                d="M11 41.6365C11.006 43.6961 11.9291 45.6698 13.5676 47.1264C15.2061 48.583 17.4267 49.404 19.7442 49.4101C22.0612 49.4041 24.2814 48.5834 25.9197 47.1273C27.5581 45.6713 28.4816 43.6982 28.4884 41.639V30.2814C28.4884 30.2814 11 32.0136 11 41.6365ZM19.7442 43.6715C19.2913 43.6715 18.8486 43.5521 18.472 43.3285C18.0955 43.1049 17.802 42.7871 17.6287 42.4153C17.4554 42.0434 17.41 41.6342 17.4984 41.2395C17.5867 40.8448 17.8048 40.4822 18.125 40.1976C18.4453 39.913 18.8533 39.7192 19.2975 39.6406C19.7416 39.5621 20.202 39.6024 20.6205 39.7564C21.0389 39.9105 21.3965 40.1713 21.6481 40.5059C21.8997 40.8406 22.034 41.234 22.034 41.6365C22.0351 41.9044 21.9767 42.1698 21.8622 42.4176C21.7476 42.6654 21.5791 42.8906 21.3664 43.0804C21.1536 43.2702 20.9008 43.4207 20.6224 43.5235C20.3441 43.6262 20.0456 43.6791 19.7442 43.6791V43.6715Z"
                />
            <path
                d="M35.7302 40.0283V44.2939H34.8513V40.0283H35.7302ZM37.4294 41.8506V42.5361H35.4899V41.8506H37.4294ZM37.6345 40.0283V40.7168H35.4899V40.0283H37.6345ZM41.6481 42.0615V42.2637C41.6481 42.5879 41.6042 42.8789 41.5163 43.1367C41.4284 43.3945 41.3044 43.6143 41.1442 43.7959C40.9841 43.9756 40.7927 44.1133 40.57 44.209C40.3493 44.3047 40.1042 44.3525 39.8347 44.3525C39.5671 44.3525 39.322 44.3047 39.0993 44.209C38.8786 44.1133 38.6872 43.9756 38.5251 43.7959C38.363 43.6143 38.237 43.3945 38.1472 43.1367C38.0593 42.8789 38.0153 42.5879 38.0153 42.2637V42.0615C38.0153 41.7354 38.0593 41.4443 38.1472 41.1885C38.235 40.9307 38.3591 40.7109 38.5192 40.5293C38.6813 40.3477 38.8727 40.209 39.0934 40.1133C39.3161 40.0176 39.5612 39.9697 39.8288 39.9697C40.0983 39.9697 40.3434 40.0176 40.5641 40.1133C40.7868 40.209 40.9782 40.3477 41.1384 40.5293C41.3005 40.7109 41.4255 40.9307 41.5134 41.1885C41.6032 41.4443 41.6481 41.7354 41.6481 42.0615ZM40.7604 42.2637V42.0557C40.7604 41.8291 40.7399 41.6299 40.6989 41.458C40.6579 41.2861 40.5974 41.1416 40.5173 41.0244C40.4372 40.9072 40.3395 40.8193 40.2243 40.7607C40.1091 40.7002 39.9772 40.6699 39.8288 40.6699C39.6804 40.6699 39.5485 40.7002 39.4333 40.7607C39.32 40.8193 39.2233 40.9072 39.1432 41.0244C39.0651 41.1416 39.0056 41.2861 38.9645 41.458C38.9235 41.6299 38.903 41.8291 38.903 42.0557V42.2637C38.903 42.4883 38.9235 42.6875 38.9645 42.8613C39.0056 43.0332 39.0661 43.1787 39.1462 43.2979C39.2263 43.415 39.3239 43.5039 39.4391 43.5645C39.5544 43.625 39.6862 43.6553 39.8347 43.6553C39.9831 43.6553 40.1149 43.625 40.2302 43.5645C40.3454 43.5039 40.4421 43.415 40.5202 43.2979C40.5983 43.1787 40.6579 43.0332 40.6989 42.8613C40.7399 42.6875 40.7604 42.4883 40.7604 42.2637ZM44.5016 43.1777C44.5016 43.1016 44.4899 43.0332 44.4665 42.9727C44.445 42.9102 44.404 42.8535 44.3434 42.8027C44.2829 42.75 44.1979 42.6982 44.0886 42.6475C43.9792 42.5967 43.8376 42.5439 43.6638 42.4893C43.4704 42.4268 43.2868 42.3564 43.113 42.2783C42.9411 42.2002 42.7888 42.1094 42.6559 42.0059C42.5251 41.9004 42.4216 41.7783 42.3454 41.6396C42.2712 41.501 42.2341 41.3398 42.2341 41.1562C42.2341 40.9785 42.2731 40.8174 42.3513 40.6729C42.4294 40.5264 42.5388 40.4014 42.6794 40.2979C42.82 40.1924 42.986 40.1113 43.1774 40.0547C43.3708 39.998 43.5827 39.9697 43.8132 39.9697C44.1276 39.9697 44.402 40.0264 44.6364 40.1396C44.8708 40.2529 45.0524 40.4082 45.1813 40.6055C45.3122 40.8027 45.3776 41.0283 45.3776 41.2822H44.5046C44.5046 41.1572 44.4782 41.0479 44.4255 40.9541C44.3747 40.8584 44.2966 40.7832 44.1911 40.7285C44.0876 40.6738 43.9567 40.6465 43.7985 40.6465C43.6462 40.6465 43.5192 40.6699 43.4177 40.7168C43.3161 40.7617 43.2399 40.8232 43.1891 40.9014C43.1384 40.9775 43.113 41.0635 43.113 41.1592C43.113 41.2314 43.1306 41.2969 43.1657 41.3555C43.2028 41.4141 43.2575 41.4688 43.3298 41.5195C43.402 41.5703 43.4909 41.6182 43.5964 41.6631C43.7018 41.708 43.8239 41.752 43.9626 41.7949C44.195 41.8652 44.3991 41.9443 44.5749 42.0322C44.7526 42.1201 44.9011 42.2188 45.0202 42.3281C45.1393 42.4375 45.2292 42.5615 45.2897 42.7002C45.3503 42.8389 45.3806 42.9961 45.3806 43.1719C45.3806 43.3574 45.3444 43.5234 45.2722 43.6699C45.1999 43.8164 45.0954 43.9404 44.9587 44.042C44.822 44.1436 44.6589 44.2207 44.4694 44.2734C44.28 44.3262 44.0681 44.3525 43.8337 44.3525C43.6227 44.3525 43.4147 44.3252 43.2097 44.2705C43.0046 44.2139 42.8181 44.1289 42.6501 44.0156C42.4841 43.9023 42.3513 43.7578 42.2516 43.582C42.152 43.4062 42.1022 43.1982 42.1022 42.958H42.9841C42.9841 43.0908 43.0046 43.2031 43.0456 43.2949C43.0866 43.3867 43.1442 43.4609 43.2184 43.5176C43.2946 43.5742 43.3845 43.6152 43.488 43.6406C43.5934 43.666 43.7087 43.6787 43.8337 43.6787C43.986 43.6787 44.111 43.6572 44.2087 43.6143C44.3083 43.5713 44.3815 43.5117 44.4284 43.4355C44.4772 43.3594 44.5016 43.2734 44.5016 43.1777ZM47.8854 40.0283V44.2939H47.0095V40.0283H47.8854ZM49.1979 40.0283V40.7168H45.7175V40.0283H49.1979ZM52.5612 43.6084V44.2939H50.2907V43.6084H52.5612ZM50.5778 40.0283V44.2939H49.6989V40.0283H50.5778ZM52.2653 41.7656V42.4336H50.2907V41.7656H52.2653ZM52.5583 40.0283V40.7168H50.2907V40.0283H52.5583ZM53.0739 40.0283H54.6647C54.9909 40.0283 55.2712 40.0771 55.5056 40.1748C55.7419 40.2725 55.9235 40.417 56.0505 40.6084C56.1774 40.7998 56.2409 41.0352 56.2409 41.3145C56.2409 41.543 56.2018 41.7393 56.1237 41.9033C56.0475 42.0654 55.9391 42.2012 55.7985 42.3105C55.6599 42.418 55.4968 42.5039 55.3093 42.5684L55.0309 42.7148H53.6481L53.6423 42.0293H54.6706C54.8249 42.0293 54.9528 42.002 55.0544 41.9473C55.1559 41.8926 55.2321 41.8164 55.2829 41.7188C55.3356 41.6211 55.362 41.5078 55.362 41.3789C55.362 41.2422 55.3366 41.124 55.2858 41.0244C55.235 40.9248 55.1579 40.8486 55.0544 40.7959C54.9509 40.7432 54.821 40.7168 54.6647 40.7168H53.9528V44.2939H53.0739V40.0283ZM55.4587 44.2939L54.486 42.3926L55.4147 42.3867L56.3991 44.2529V44.2939H55.4587ZM60.0729 42.7734H58.986V42.0879H60.0729C60.2409 42.0879 60.3776 42.0605 60.4831 42.0059C60.5886 41.9492 60.6657 41.8711 60.7145 41.7715C60.7634 41.6719 60.7878 41.5596 60.7878 41.4346C60.7878 41.3076 60.7634 41.1895 60.7145 41.0801C60.6657 40.9707 60.5886 40.8828 60.4831 40.8164C60.3776 40.75 60.2409 40.7168 60.0729 40.7168H59.2907V44.2939H58.4118V40.0283H60.0729C60.4069 40.0283 60.6931 40.0889 60.9313 40.21C61.1716 40.3291 61.3552 40.4941 61.4821 40.7051C61.6091 40.916 61.6725 41.1572 61.6725 41.4287C61.6725 41.7041 61.6091 41.9424 61.4821 42.1436C61.3552 42.3447 61.1716 42.5 60.9313 42.6094C60.6931 42.7188 60.4069 42.7734 60.0729 42.7734ZM65.1413 43.6084V44.2939H62.8708V43.6084H65.1413ZM63.1579 40.0283V44.2939H62.279V40.0283H63.1579ZM64.8454 41.7656V42.4336H62.8708V41.7656H64.8454ZM65.1384 40.0283V40.7168H62.8708V40.0283H65.1384ZM67.6198 40.0283V44.2939H66.7438V40.0283H67.6198ZM68.9323 40.0283V40.7168H65.4518V40.0283H68.9323ZM72.2956 43.6084V44.2939H70.0251V43.6084H72.2956ZM70.3122 40.0283V44.2939H69.4333V40.0283H70.3122ZM71.9997 41.7656V42.4336H70.0251V41.7656H71.9997ZM72.2927 40.0283V40.7168H70.0251V40.0283H72.2927ZM72.8083 40.0283H74.3991C74.7253 40.0283 75.0056 40.0771 75.2399 40.1748C75.4763 40.2725 75.6579 40.417 75.7849 40.6084C75.9118 40.7998 75.9753 41.0352 75.9753 41.3145C75.9753 41.543 75.9362 41.7393 75.8581 41.9033C75.7819 42.0654 75.6735 42.2012 75.5329 42.3105C75.3942 42.418 75.2311 42.5039 75.0436 42.5684L74.7653 42.7148H73.3825L73.3766 42.0293H74.405C74.5593 42.0293 74.6872 42.002 74.7888 41.9473C74.8903 41.8926 74.9665 41.8164 75.0173 41.7188C75.07 41.6211 75.0964 41.5078 75.0964 41.3789C75.0964 41.2422 75.071 41.124 75.0202 41.0244C74.9694 40.9248 74.8923 40.8486 74.7888 40.7959C74.6852 40.7432 74.5554 40.7168 74.3991 40.7168H73.6872V44.2939H72.8083V40.0283ZM75.1931 44.2939L74.2204 42.3926L75.1491 42.3867L76.1335 44.2529V44.2939H75.1931ZM78.8727 43.1777C78.8727 43.1016 78.861 43.0332 78.8376 42.9727C78.8161 42.9102 78.7751 42.8535 78.7145 42.8027C78.654 42.75 78.569 42.6982 78.4597 42.6475C78.3503 42.5967 78.2087 42.5439 78.0349 42.4893C77.8415 42.4268 77.6579 42.3564 77.4841 42.2783C77.3122 42.2002 77.1599 42.1094 77.027 42.0059C76.8962 41.9004 76.7927 41.7783 76.7165 41.6396C76.6423 41.501 76.6052 41.3398 76.6052 41.1562C76.6052 40.9785 76.6442 40.8174 76.7224 40.6729C76.8005 40.5264 76.9099 40.4014 77.0505 40.2979C77.1911 40.1924 77.3571 40.1113 77.5485 40.0547C77.7419 39.998 77.9538 39.9697 78.1843 39.9697C78.4987 39.9697 78.7731 40.0264 79.0075 40.1396C79.2419 40.2529 79.4235 40.4082 79.5524 40.6055C79.6833 40.8027 79.7487 41.0283 79.7487 41.2822H78.8757C78.8757 41.1572 78.8493 41.0479 78.7966 40.9541C78.7458 40.8584 78.6677 40.7832 78.5622 40.7285C78.4587 40.6738 78.3278 40.6465 78.1696 40.6465C78.0173 40.6465 77.8903 40.6699 77.7888 40.7168C77.6872 40.7617 77.611 40.8232 77.5602 40.9014C77.5095 40.9775 77.4841 41.0635 77.4841 41.1592C77.4841 41.2314 77.5016 41.2969 77.5368 41.3555C77.5739 41.4141 77.6286 41.4688 77.7009 41.5195C77.7731 41.5703 77.862 41.6182 77.9675 41.6631C78.0729 41.708 78.195 41.752 78.3337 41.7949C78.5661 41.8652 78.7702 41.9443 78.946 42.0322C79.1237 42.1201 79.2722 42.2188 79.3913 42.3281C79.5104 42.4375 79.6003 42.5615 79.6608 42.7002C79.7214 42.8389 79.7516 42.9961 79.7516 43.1719C79.7516 43.3574 79.7155 43.5234 79.6432 43.6699C79.571 43.8164 79.4665 43.9404 79.3298 44.042C79.1931 44.1436 79.03 44.2207 78.8405 44.2734C78.6511 44.3262 78.4391 44.3525 78.2048 44.3525C77.9938 44.3525 77.7858 44.3252 77.5807 44.2705C77.3757 44.2139 77.1891 44.1289 77.0212 44.0156C76.8552 43.9023 76.7224 43.7578 76.6227 43.582C76.5231 43.4062 76.4733 43.1982 76.4733 42.958H77.3552C77.3552 43.0908 77.3757 43.2031 77.4167 43.2949C77.4577 43.3867 77.5153 43.4609 77.5895 43.5176C77.6657 43.5742 77.7556 43.6152 77.8591 43.6406C77.9645 43.666 78.0798 43.6787 78.2048 43.6787C78.3571 43.6787 78.4821 43.6572 78.5798 43.6143C78.6794 43.5713 78.7526 43.5117 78.7995 43.4355C78.8483 43.3594 78.8727 43.2734 78.8727 43.1777Z"
                /></symbol>
                <symbol id="client5">
            <path
                d="M26.7569 44.8221C27.0006 45.0983 27.1304 45.4441 27.1236 45.7991C27.136 46.0307 27.0914 46.2618 26.993 46.4754C26.8947 46.689 26.7451 46.8797 26.5554 47.0332C26.082 47.3605 25.4956 47.5205 24.9037 47.4838H22V41.2924H24.8442C25.4057 41.2582 25.9626 41.4036 26.42 41.7037C26.6036 41.8445 26.7491 42.0224 26.8448 42.2235C26.9406 42.4245 26.984 42.6431 26.9716 42.8622C26.9883 43.2037 26.8712 43.5395 26.6413 43.8089C26.4206 44.0549 26.1156 44.2254 25.7758 44.2928C26.161 44.3572 26.5087 44.5448 26.7569 44.8221ZM23.3511 43.8875H24.5667C24.843 43.9062 25.1174 43.8332 25.3397 43.6819C25.431 43.6061 25.502 43.5122 25.5473 43.4073C25.5925 43.3024 25.6108 43.1893 25.6007 43.0769C25.6093 42.9649 25.5906 42.8526 25.5461 42.748C25.5015 42.6434 25.4322 42.5491 25.343 42.472C25.1141 42.3164 24.8312 42.2422 24.5469 42.2633H23.3511V43.8875ZM25.4587 46.2619C25.5562 46.1843 25.6329 46.0872 25.6828 45.9781C25.7326 45.869 25.7543 45.7508 25.7461 45.6328C25.7535 45.5133 25.7309 45.3939 25.6799 45.2838C25.6289 45.1737 25.551 45.0757 25.4521 44.9976C25.2142 44.8361 24.9217 44.7569 24.6262 44.7738H23.3511V46.4766H24.6427C24.9334 46.492 25.2212 46.4163 25.4587 46.2619Z"
                />
            <path
                d="M32.5709 47.4839L30.9886 45.0641H30.394V47.4839H29.033V41.2924H31.6096C32.2591 41.2509 32.9012 41.4393 33.4034 41.8187C33.7635 42.1547 33.9808 42.5975 34.0159 43.0672C34.051 43.537 33.9018 44.0027 33.595 44.3806C33.2771 44.714 32.8428 44.9364 32.3661 45.0097L34.0508 47.4839H32.5709ZM30.394 44.2203H31.5072C32.2802 44.2203 32.6667 43.9077 32.6667 43.2826C32.6746 43.155 32.6534 43.0272 32.6045 42.9074C32.5556 42.7877 32.48 42.6785 32.3826 42.5869C32.1383 42.4009 31.8237 42.3107 31.5072 42.3359H30.3807L30.394 44.2203Z"
                 />
            <path
                d="M40.0102 46.2376H37.2981L36.8191 47.4837H35.392L37.8828 41.3618H39.4255L41.9063 47.4837H40.4793L40.0102 46.2376ZM39.6468 45.2999L38.6558 42.6866L37.6648 45.2999H39.6468Z"
                />
            <path
                d="M49.3224 47.4838H47.9713L44.9421 43.2735V47.4838H43.5943V41.2924H44.9421L47.9713 45.5269V41.2924H49.3224V47.4838Z"
                />
            <path
                d="M57.0326 46.0018C56.7532 46.4692 56.3276 46.8495 55.8103 47.0937C55.2222 47.3657 54.5695 47.4998 53.9109 47.4839H51.506V41.2924H53.9109C54.5684 41.2767 55.2202 41.4075 55.8103 41.6735C56.3275 41.9122 56.7536 42.2886 57.0326 42.7533C57.3107 43.2569 57.4556 43.8133 57.4556 44.3776C57.4556 44.9418 57.3107 45.4982 57.0326 46.0018ZM55.4866 45.8536C55.8722 45.4423 56.0842 44.9181 56.0842 44.376C56.0842 43.834 55.8722 43.3098 55.4866 42.8985C55.0205 42.5259 54.4127 42.3368 53.7952 42.3722H52.8571V46.3799H53.7952C54.4127 46.4153 55.0205 46.2261 55.4866 45.8536Z"
                />
            <path
                d="M40.8558 6.85364C40.8558 6.85364 58.2945 12.8818 57.9245 21.6049V36.3591C57.9245 36.3591 40.4991 30.328 40.8624 21.6049L40.8558 6.85364Z"
                />
            <path
                d="M73.4603 32.9049C76.7538 30.8296 80.5633 29.5442 84.5399 29.1664V24.5478C79.9579 26.1648 76.0709 29.0967 73.4603 32.9049Z"
               />
            <path
                d="M71.4816 34.2964C74.1773 29.3265 78.8505 25.4914 84.54 23.58V10.2715C84.54 10.2715 59.705 18.8585 60.2303 31.2808V52.287C60.2303 52.287 61.3369 51.9029 63.0778 51.183C63.0778 50.5115 63.0778 49.834 63.1571 49.1535C63.6711 43.3865 66.6654 38.0424 71.4816 34.2964Z"
                />
            <path
                d="M69.1197 42.1C69.2502 40.6432 69.5413 39.2021 69.9885 37.799C66.9896 41.034 65.1734 45.0484 64.7956 49.2775C64.7592 49.6768 64.7394 50.076 64.7295 50.4874C66.14 49.8673 67.7818 49.093 69.5062 48.1826C69.0662 46.1817 68.936 44.1341 69.1197 42.1Z"
                />
            <path
                d="M70.1075 42.1756C69.9421 44.0159 70.0454 45.8682 70.4147 47.6835C77.1999 43.9662 84.8241 38.2224 84.5301 31.2808V30.6759C79.6824 31.1726 75.1468 33.1129 71.6204 36.1989C70.7948 38.1113 70.2849 40.1257 70.1075 42.1756Z"
                 /></symbol>
                 <symbol id="client6">
            <path
                d="M47.425 21.4952C46.9819 20.9054 46.7699 20.2083 46.8203 19.5066V16.6234C46.8203 15.7396 47.0207 15.0679 47.4216 14.6084C47.8224 14.1489 48.511 13.9201 49.4871 13.9221C50.4044 13.9221 51.0555 14.1176 51.4405 14.5087C51.8605 15.0077 52.0648 15.6178 52.018 16.2333V16.9108H50.3772V16.2245C50.383 15.9999 50.3671 15.7752 50.3296 15.5528C50.306 15.4008 50.2234 15.2602 50.0952 15.154C49.9267 15.0394 49.7145 14.9839 49.5007 14.9985C49.2759 14.984 49.0529 15.0426 48.8756 15.1628C48.7327 15.2804 48.6374 15.4347 48.6038 15.6027C48.5567 15.838 48.5351 16.0766 48.5393 16.3154V19.8146C48.5134 20.1521 48.5858 20.4899 48.7499 20.7971C48.8315 20.9011 48.9448 20.9835 49.0774 21.0353C49.2099 21.087 49.3564 21.1061 49.5007 21.0904C49.7109 21.1054 49.9195 21.0485 50.0816 20.9321C50.2153 20.8175 50.3013 20.668 50.3262 20.5068C50.3645 20.2746 50.3816 20.0402 50.3772 19.8058V19.096H52.018V19.7442C52.0641 20.3857 51.8648 21.0226 51.4507 21.5568C51.0736 21.985 50.4315 22.1991 49.4871 22.1991C48.5427 22.1991 47.8292 21.9704 47.425 21.4952Z"
               />
            <path
                d="M54.2569 21.5245C53.8424 21.0758 53.6352 20.4217 53.6352 19.5565V16.5237C53.6352 15.6672 53.8424 15.019 54.2569 14.5791C54.6713 14.1391 55.3644 13.9201 56.3359 13.9221C57.3007 13.9221 57.9904 14.1411 58.4048 14.5791C58.8193 15.019 59.0299 15.6672 59.0299 16.5237V19.5565C59.0299 20.4129 58.8193 21.0699 58.398 21.5216C57.9768 21.9733 57.2906 22.1991 56.3359 22.1991C55.3813 22.1991 54.6747 21.9704 54.2569 21.5245ZM57.1003 20.7971C57.2487 20.516 57.3163 20.2081 57.2974 19.8996V16.1864C57.3164 15.8839 57.2499 15.5819 57.1037 15.3065C57.0205 15.2003 56.9043 15.1166 56.7686 15.0647C56.6328 15.0128 56.4829 14.995 56.3359 15.0132C56.1885 14.9954 56.0383 15.0135 55.9021 15.0653C55.7659 15.1171 55.6491 15.2006 55.5648 15.3065C55.4154 15.5811 55.3477 15.8835 55.3678 16.1864V19.9172C55.3471 20.2258 55.4148 20.5341 55.5648 20.8147C55.6604 20.9094 55.7785 20.9852 55.9109 21.0371C56.0433 21.0891 56.1871 21.116 56.3326 21.116C56.478 21.116 56.6218 21.0891 56.7542 21.0371C56.8866 20.9852 57.0047 20.9094 57.1003 20.8147V20.7971Z"
                 />
            <path
                d="M61.0035 14.0106H62.7701L64.0984 19.6062L65.4573 14.0106H67.1763L67.3496 22.0873H66.079L65.9431 16.474L64.6318 22.0873H63.6126L62.2537 16.4535L62.128 22.0873H60.8439L61.0035 14.0106Z"
                />
            <path
                d="M69.3302 14.0106H72.0819C73.6673 14.0106 74.4599 14.775 74.4599 16.3039C74.4599 17.7684 73.6254 18.4996 71.9562 18.4976H71.0186V22.0873H69.32L69.3302 14.0106ZM71.6811 17.4624C71.8489 17.4808 72.0193 17.4675 72.1806 17.4234C72.3419 17.3794 72.4902 17.3056 72.6153 17.2072C72.8101 16.9344 72.896 16.6141 72.8599 16.2952C72.8688 16.0488 72.8414 15.8024 72.7783 15.562C72.7541 15.4817 72.7116 15.4063 72.6533 15.3404C72.5949 15.2744 72.522 15.2191 72.4386 15.1778C72.2028 15.0801 71.9422 15.0357 71.6811 15.0487H71.022V17.4624H71.6811Z"
              />
            <path
                d="M76.9094 14.0106H78.7337L80.6055 22.0873H79.0225L78.6522 20.225H77.0249L76.6444 22.0873H75.0376L76.9094 14.0106ZM78.4687 19.2895L77.8334 15.8992L77.1982 19.2895H78.4687Z"
                 />
            <path
                d="M82.1173 14.0106H83.3063L85.5825 18.6179V14.0106H86.9923V22.0873H85.861L83.5713 17.2776V22.0873H82.1139L82.1173 14.0106Z"
                />
            <path
                d="M90.2945 19.0077L88.4022 14.0219H89.9955L91.1506 17.2245L92.2343 14.0219H93.7936L91.9251 19.0077V22.0872H90.2945V19.0077Z"
                />
            <path
                d="M50.0477 25.6185V26.0409H48.6617V29.3228H48.0807V26.0409H46.6879V25.6185H50.0477Z"
                 />
            <path
                d="M54.3927 29.3231H53.9442C53.8987 29.3256 53.8538 29.313 53.8185 29.2879C53.7846 29.2664 53.7587 29.2369 53.7438 29.2029L53.3429 28.323H51.4201L51.0192 29.2029C51.0078 29.2397 50.9869 29.2738 50.958 29.3026C50.9225 29.3271 50.8778 29.3397 50.8324 29.3378H50.3839L52.0825 25.6337H52.6737L54.3927 29.3231ZM51.5797 27.9476H53.1833L52.5038 26.4402C52.4537 26.3262 52.4117 26.2096 52.3781 26.0912C52.3543 26.1616 52.3339 26.229 52.3136 26.2877L52.2524 26.4431L51.5797 27.9476Z"
                />
            <path
                d="M57.3211 28.9593C57.4275 28.9641 57.5341 28.9641 57.6404 28.9593C57.7323 28.9511 57.8232 28.9364 57.9122 28.9153C57.9954 28.8977 58.0772 28.8751 58.1568 28.8478C58.2316 28.8214 58.3063 28.7891 58.3844 28.7569V27.9239H57.705C57.6882 27.9247 57.6714 27.9225 57.6556 27.9174C57.6398 27.9124 57.6254 27.9046 57.6133 27.8945C57.6021 27.8862 57.5933 27.8758 57.5874 27.8641C57.5815 27.8524 57.5787 27.8398 57.5793 27.8271V27.5425H58.8974V28.9622C58.7898 29.0287 58.6762 29.0875 58.5577 29.1382C58.4366 29.1898 58.3104 29.232 58.1806 29.2643C58.0417 29.2996 57.8996 29.3251 57.7559 29.3406C57.5912 29.3564 57.4257 29.3642 57.26 29.3641C56.967 29.3662 56.6763 29.3194 56.4038 29.2262C56.1495 29.1379 55.9184 29.0062 55.7244 28.839C55.5353 28.6701 55.3864 28.4708 55.2862 28.2524C55.1791 28.0068 55.1261 27.7462 55.1299 27.4839C55.1263 27.2199 55.1781 26.9576 55.2828 26.7095C55.3805 26.49 55.5297 26.2903 55.721 26.1229C55.9149 25.9562 56.1461 25.8255 56.4005 25.7386C56.6914 25.6441 57.0001 25.5974 57.3109 25.6008C57.4691 25.6006 57.627 25.6114 57.7831 25.633C57.9212 25.6524 58.0567 25.6839 58.1874 25.7269C58.3062 25.7654 58.4201 25.8146 58.5271 25.8735C58.6312 25.9314 58.7301 25.9962 58.8227 26.0671L58.6596 26.2959C58.6468 26.3168 58.6278 26.3344 58.6045 26.3468C58.5812 26.3591 58.5545 26.3659 58.5271 26.3663C58.4895 26.3653 58.453 26.3551 58.4218 26.337C58.3708 26.3135 58.3165 26.2842 58.2553 26.249C58.1831 26.2099 58.1069 26.1765 58.0277 26.1493C57.9265 26.1142 57.8219 26.0867 57.7152 26.0671C57.5729 26.0445 57.4284 26.0337 57.2837 26.0349C57.0596 26.0327 56.8371 26.0676 56.6281 26.1375C56.439 26.203 56.2686 26.3031 56.1287 26.4309C55.9879 26.564 55.8803 26.7208 55.8127 26.8914C55.661 27.2926 55.661 27.725 55.8127 28.1262C55.8871 28.3005 56.0028 28.4593 56.1525 28.5926C56.2918 28.7197 56.4609 28.8197 56.6485 28.8859C56.8645 28.95 57.0934 28.9749 57.3211 28.9593Z"
               />
            <path d="M62.7362 28.9005H64.5911V29.3228H62.1689V25.6185H62.7498L62.7362 28.9005Z"
               />
            <path d="M66.5208 29.3228H65.9398V25.6185H66.5208V29.3228Z"  />
            <path
                d="M68.6814 25.6361C68.7159 25.6531 68.746 25.6761 68.7697 25.7036L71.253 28.4959C71.2497 28.452 71.2497 28.4079 71.253 28.3639C71.253 28.3229 71.253 28.2818 71.253 28.2437V25.6039H71.7592V29.3231H71.4671C71.4238 29.3261 71.3804 29.319 71.3414 29.3025C71.3061 29.2841 71.275 29.2602 71.2496 29.2321L68.7697 26.4428C68.7697 26.4867 68.7697 26.5278 68.7697 26.5689C68.7697 26.6099 68.7697 26.6481 68.7697 26.6833V29.3231H68.2839V25.6185H68.5863C68.6191 25.6186 68.6515 25.6246 68.6814 25.6361Z"
                 />
            <path
                d="M76.0364 25.6185V26.0262H73.9777V27.2493H75.6457V27.6423H73.9777V28.9064H76.0364V29.3141H73.3798V25.6185H76.0364Z"
                />
            <path
                d="M15.1617 2.74242L40.9568 9.06573V31.2237L15.1617 24.9033V2.74242ZM13.5073 0.853638V25.9797L42.6079 33.1154V7.99229L13.5073 0.853638Z"
                />
            <path d="M29.1039 44.7791L0 37.6375V12.514L29.1039 19.6528V44.7791Z" />
            <path
                d="M13.9897 2.4579L39.4484 8.70191L28.6215 18.0518L3.1594 11.8049L13.9897 2.4579ZM13.5073 0.853638L0 12.5146L29.1039 19.6531L42.6078 7.99217L13.5073 0.853638Z"
                />
            <path d="M30.7414 43.3657L42.6078 33.1185L30.7414 30.2062V43.3657Z" /></symbol>
    </defs>
</svg>